<svg xmlns="http://www.w3.org/2000/svg" width="171.375" height="21"><path id="Naradare" d="M334.013 73.468c-1.708 0-2.52.644-2.52 2.912v16.072a.557.557 0 0 0 .644.616h2.94a.537.537 0 0 0 .616-.616V77.836c0-.2.056-.28.224-.28h.252a.408.408 0 0 1 .364.2l10.444 13.664c1.12 1.484 1.54 1.652 3.248 1.652h2.408c1.708 0 2.52-.644 2.52-2.912V74.084a.537.537 0 0 0-.616-.616H351.6a.537.537 0 0 0-.616.616V88.7a.226.226 0 0 1-.224.28h-.252a.38.38 0 0 1-.364-.2l-10.419-13.66c-1.064-1.428-1.456-1.652-3.248-1.652h-2.464zm25.116 4.232a.445.445 0 0 0-.5.5v2.352a.435.435 0 0 0 .5.5h11.7c2.436 0 3.052.7 3.052 2.492v.536h-11.4c-3.3 0-4.312 1.316-4.312 3.668v1.344c0 2.772 1.008 3.976 4.312 3.976h13.328c1.624 0 2.072-.42 2.072-2.24V83.38c0-4.06-1.624-5.684-6.664-5.684h-12.1zm13.944 12.292h-9.436c-1.148 0-1.568-.448-1.568-1.456v-.592c0-.9.42-1.372 1.568-1.372h10.248v2.464c0 .7-.224.952-.812.952zM387.464 77.7c-5.04 0-6.664 1.624-6.664 5.684v9.072a.557.557 0 0 0 .644.616h2.744a.537.537 0 0 0 .616-.616v-8.32c0-2.352.644-3.08 3.052-3.08h7.444a.435.435 0 0 0 .5-.5V78.2a.445.445 0 0 0-.5-.5h-7.84zm10.92 0a.445.445 0 0 0-.5.5v2.352a.435.435 0 0 0 .5.5h11.7c2.436 0 3.052.7 3.052 2.492v.536h-11.4c-3.3 0-4.312 1.316-4.312 3.668v1.344c0 2.772 1.008 3.976 4.312 3.976h13.328c1.624 0 2.072-.42 2.072-2.24V83.38c0-4.06-1.624-5.684-6.664-5.684h-12.1zm13.944 12.292h-9.436c-1.148 0-1.568-.448-1.568-1.456v-.592c0-.9.42-1.372 1.568-1.372h10.248v2.464c0 .7-.224.952-.812.952zM426.552 77.7c-5.04 0-6.664 1.624-6.664 5.684v4.032c0 4.06 1.624 5.656 6.664 5.656h7.84c5.04 0 6.664-1.6 6.664-5.656V72.684a.537.537 0 0 0-.616-.616h-2.74a.537.537 0 0 0-.616.616V77.7h-10.532zM434 89.708h-7.056c-2.408 0-3.052-.728-3.052-3.08v-2.492c0-2.352.644-3.08 3.052-3.08h10.136v5.572c0 2.352-.644 3.08-3.08 3.08zM444.863 77.7a.445.445 0 0 0-.5.5v2.352a.435.435 0 0 0 .5.5h11.7c2.436 0 3.052.7 3.052 2.492v.536h-11.4c-3.3 0-4.312 1.316-4.312 3.668v1.344c0 2.772 1.008 3.976 4.312 3.976h13.328c1.624 0 2.072-.42 2.072-2.24V83.38c0-4.06-1.624-5.684-6.664-5.684h-12.1zm13.944 12.292h-9.436c-1.148 0-1.568-.448-1.568-1.456v-.592c0-.9.42-1.372 1.568-1.372h10.248v2.464c0 .7-.219.952-.812.952zM473.2 77.7c-5.04 0-6.664 1.624-6.664 5.684v9.072a.557.557 0 0 0 .644.616h2.744a.537.537 0 0 0 .616-.616v-8.32c0-2.352.644-3.08 3.052-3.08h7.448a.435.435 0 0 0 .5-.5V78.2a.445.445 0 0 0-.5-.5h-7.84zm16.632 0c-5.04 0-6.664 1.624-6.664 5.684v4.032c0 4.06 1.624 5.656 6.664 5.656H501.9a.445.445 0 0 0 .5-.5v-2.36a.445.445 0 0 0-.5-.5h-11.677c-2.436 0-3.08-.728-3.08-2.492v-.676h14.14a1.35 1.35 0 0 0 1.6-1.6v-2.66c0-3.388-1.008-4.592-4.844-4.592h-8.2zm-2.688 5.6c0-1.792.644-2.492 3.08-2.492h7.028c1.288 0 1.708.448 1.708 1.6v1.176a.4.4 0 0 1-.476.476h-11.34v-.76z" transform="translate(-331.5 -72.063)" fill="#222" fill-rule="evenodd"/></svg>