<svg xmlns="http://www.w3.org/2000/svg" width="110.187" height="13.5"><path id="Naradare" d="M280.809 3242.4c-1.1 0-1.621.41-1.621 1.87v10.33a.361.361 0 0 0 .414.4h1.891a.348.348 0 0 0 .4-.4v-9.39c0-.13.036-.18.144-.18h.163a.257.257 0 0 1 .234.12l6.716 8.79a1.987 1.987 0 0 0 2.089 1.06h1.548c1.1 0 1.621-.41 1.621-1.87v-10.34a.341.341 0 0 0-.4-.39h-1.891a.341.341 0 0 0-.4.39v9.4a.144.144 0 0 1-.144.18h-.162a.24.24 0 0 1-.234-.12l-6.7-8.79a1.965 1.965 0 0 0-2.089-1.06h-1.584zm16.145 2.72a.282.282 0 0 0-.324.32v1.51a.282.282 0 0 0 .324.33h7.527c1.566 0 1.962.45 1.962 1.6v.34h-7.328c-2.125 0-2.773.85-2.773 2.36v.86c0 1.79.648 2.56 2.773 2.56h8.571c1.044 0 1.332-.27 1.332-1.44v-4.79c0-2.61-1.044-3.65-4.285-3.65h-7.779zm8.967 7.9h-6.068a.83.83 0 0 1-1.008-.94v-.37a.823.823 0 0 1 1.008-.89h6.59v1.59c0 .45-.143.61-.522.61zm9.25-7.9c-3.241 0-4.285 1.04-4.285 3.65v5.83a.361.361 0 0 0 .414.4h1.765a.348.348 0 0 0 .4-.4v-5.34c0-1.52.414-1.98 1.962-1.98h4.79a.282.282 0 0 0 .324-.33v-1.51a.282.282 0 0 0-.324-.32h-5.042zm7.019 0a.282.282 0 0 0-.324.32v1.51a.282.282 0 0 0 .324.33h7.526c1.567 0 1.963.45 1.963 1.6v.34h-7.328c-2.125 0-2.773.85-2.773 2.36v.86c0 1.79.648 2.56 2.773 2.56h8.57c1.044 0 1.333-.27 1.333-1.44v-4.79c0-2.61-1.045-3.65-4.286-3.65h-7.778zm8.967 7.9h-6.068a.83.83 0 0 1-1.008-.94v-.37a.823.823 0 0 1 1.008-.89h6.59v1.59c0 .45-.144.61-.522.61zm9.142-7.9c-3.241 0-4.285 1.04-4.285 3.65v2.59c0 2.61 1.044 3.64 4.285 3.64h5.041c3.241 0 4.286-1.03 4.286-3.64v-9.47a.341.341 0 0 0-.4-.39h-1.765a.341.341 0 0 0-.4.39v3.23H340.3zm4.789 7.72h-4.537c-1.549 0-1.963-.47-1.963-1.98v-1.6c0-1.52.414-1.98 1.963-1.98h6.518v3.58c0 1.51-.414 1.98-1.981 1.98zm6.981-7.72a.282.282 0 0 0-.324.32v1.51a.282.282 0 0 0 .324.33h7.531c1.566 0 1.962.45 1.962 1.6v.34h-7.332c-2.125 0-2.773.85-2.773 2.36v.86c0 1.79.648 2.56 2.773 2.56h8.57c1.044 0 1.332-.27 1.332-1.44v-4.79c0-2.61-1.044-3.65-4.285-3.65h-7.779zm8.967 7.9h-6.068a.83.83 0 0 1-1.008-.94v-.37a.823.823 0 0 1 1.008-.89h6.59v1.59c0 .45-.144.61-.522.61zm9.25-7.9c-3.241 0-4.285 1.04-4.285 3.65v5.83a.361.361 0 0 0 .414.4h1.765a.348.348 0 0 0 .4-.4v-5.34c0-1.52.414-1.98 1.962-1.98h4.79a.282.282 0 0 0 .324-.33v-1.51a.282.282 0 0 0-.324-.32h-5.042zm10.692 0c-3.241 0-4.285 1.04-4.285 3.65v2.59c0 2.61 1.044 3.64 4.285 3.64h7.76a.286.286 0 0 0 .325-.32v-1.52a.286.286 0 0 0-.325-.32h-7.508c-1.566 0-1.98-.47-1.98-1.6v-.44h9.092a.866.866 0 0 0 1.027-1.02v-1.71c0-2.18-.649-2.95-3.115-2.95h-5.276zm-1.728 3.6c0-1.16.414-1.61 1.98-1.61h4.52a.89.89 0 0 1 1.1 1.03v.76a.253.253 0 0 1-.306.3h-7.294v-.48z" transform="translate(-279.188 -3241.5)" fill="#fff" fill-rule="evenodd"/></svg>